<?xml version="1.0" encoding="utf-8"?>
<!-- Generator: Adobe Illustrator 26.0.0, SVG Export Plug-In . SVG Version: 6.00 Build 0)  -->
<svg version="1.1" id="Layer_1" xmlns="http://www.w3.org/2000/svg" xmlns:xlink="http://www.w3.org/1999/xlink" x="0px" y="0px"
	 viewBox="0 0 1000 444" style="enable-background:new 0 0 1000 444;" xml:space="preserve">
<style type="text/css">
	.st0{fill:#DCAF23;}
</style>
<g>
	<path class="st0" d="M96.4,42.8c0,0-58.2,267.4-68.4,273.2l43.5-0.4c0,0,23.4-101.4,24.9-111.7c0,0,7.6,244.3,85.3,212.2
		c0,0-45.8-1.3-56.6-235.1c0,0,73.8-71.4,58.4-128.7c-1.5-5.6-7.7-8.5-13-6.1l-30.6,13.9c0,0,44.4,14.4-7.8,91
		c-8,11.7-19.7,20.4-34.4,34.4l36.2-160.6c0,0-38.4-1.8-65.1,0c-22.4,1.5-35.8,18-23,45C49.4,77,52,81.4,63.5,87.4
		C63.5,87.4,53.6,36.9,96.4,42.8z"/>
	<path class="st0" d="M218.8,136.9c-30.9-2.9-49,30.8-60.5,70c-12.6,42.7-11.9,96,9.3,96c43,0,60.4-42.8,67.3-88.2
		C241.8,169.5,242.6,139.2,218.8,136.9z M209.1,207.8c-5.5,35.9-17.1,80.5-28,80.2c-9.8-0.2,0.6-37.5,6.1-73.4
		c5.5-35.9,11-63.1,23.6-62.1C218.1,153.1,214.6,171.9,209.1,207.8z"/>
	<path class="st0" d="M378.8,134.2c-14.4-22.4-38.7,22.9-38.7,22.9l-0.3-25.1l-31.6,13.9c0,0-4.3,72.2-17.9,97.3
		c-7.7,14.1-28.4,33-22.2,1.2c6.2-31.8,46.2-178.9,50-188.7c5.9-15.1,2.2-64.1-68.4,7.9c0.9-0.6,50.1-27.9,38.1,4.7
		c-11,30-56.8,196.7-49.7,216.6c13.6,38.4,37.6-6.2,48.2-16.5l-34,150.6c0,0,22.3,4.9,27.8-7.9c5.5-12.8,24.2-111.2,24.2-111.2
		s27.5,10.4,44.6-19.9C365.4,250.7,397.1,162.7,378.8,134.2z M343.4,231.3c-10.7,50.7-25.2,63.7-30,56.8
		c-6.5-9.3,5.4-31.8,10.7-55.8c8.5-38.3,26.8-83.9,31.7-70.7C357.8,166.8,351.4,193.7,343.4,231.3z"/>
	<path class="st0" d="M447.6,152.2c-0.2,0.2-0.4,0.3-0.5,0.3C447.1,152.3,447.3,151.7,447.6,152.2z"/>
	<path class="st0" d="M588,142.5c-15.6,8.8-45.5,29.9-54.1,73.2c-6.6,33.2-3.7,27.4-20.8,49.6c-17.1,22.2-7.3-28.6,5.9-67.2
		c13.2-38.5,16.1-64.5-5.6-65.4c-18.5-0.7-34.1,36.3-34.1,36.3s3.4-35.1,1.5-34.6c-1.8,0.4-32.8,9.6-36.6,11.9
		c0.4,0.8,0,18.9-0.5,36.3c-0.7,27.8-16.3,90.5-35.4,91c-10.5,0.2,29.7-140.5,29.7-140.5c-46.6-4.6-35.4,47.6-58.5,114.4
		c-19.2,55.5-0.5,54.7,17.9,52.7c9.1-1,21.7-20.6,22.2-21.4c-2.9,6.1-0.3,22.5-0.3,22.5h34c-1.5-62.2,18.2-93.7,26.2-113.5
		c8.1-19.8,34.3-52.2,2.3,31.2c-7,18.3-17.9,74-6.2,80.5c23.8,13.2,51.3-27.7,52.3-28.6c-0.3,0.9-8.2,21.8,0,29
		c8.4,7.3,40.2-29,40.2-29s-7,68.2-20.9,106.9c-13.9,38.8-26.3-0.4-29.6-5.1c-3.3-4.7-12.4-41.7-14.3-41
		c-1.8,0.7-16.8,21.2-16.8,21.2s7.3,20.5,12.8,38.4c5.5,17.9,18.7,25.6,30.4,22.3c11.7-3.3,36.6-24.9,43.2-38.8
		c6.6-13.9,15-68.8,17.2-98.1c2.2-29.3,36.1-151.1,36.1-151.1S603.6,133.7,588,142.5z M576.1,228.8c-2.2,9-8.1,35.2-20.1,35.3
		c-6,0,2.6-43.7,7.5-65.1c4.9-21.5,23.4-36.7,23.4-36.7C587.9,185.4,578.4,219.7,576.1,228.8z"/>
	<line class="st0" x1="551.1" y1="301.4" x2="341.7" y2="301.4"/>
	<path class="st0" d="M452.3,86.5c-3.2,15.3-16.3,29.3-23.8,27.7c-7.6-1.6-11.1-15.3-7.9-30.6c3.2-15.3,11.9-26.4,19.5-24.9
		C447.7,60.3,455.5,71.2,452.3,86.5z"/>
	<path class="st0" d="M949.9,193.7c0,0,24-4.8,21.9-41.5c-1-17.8-16.2-35-40.1,1.8c-25.4,39.1-19.4,47.4-10.6,73.7
		c8.8,26.3,9.4,42.1,7.1,47.6c-5.2,12.3-17.4,5.3-15.2-30.7c0,0-24.6,28.9-32,28.5c-7.3-0.4-2.6-21.6,6.2-59.3
		c8.8-37.7,16.5-59.3,15.7-75.4l-27.8,2.9c0,0-4.3,105.1-49.4,137.5c-8.5,6.1,21.2-114.1,23.1-137.9l-26,5.5c0,0-5.5,108.7-41,122.2
		c-13,4.9,7.7-68.5,11.7-80.3c2.2-6.5,16-58.9,16-58.9s-7.5,0.9-23.7,9.1c-36.3,18.4-64.9,26.8-76,116.3c0,0-30.3,39-23.5,3.9
		c5.1-26.2,32.6-97.6,22.2-119.1c-6.8-14.1-23.7-10.4-46,30.6c0,0,32.7-118.3,27.6-134.7c-3-9.6-13.9-8.6-29.5-1.2
		c-11,5.2-24.7,11.9-43.4,31c0.9-0.6,41.7-28.5,41.3-6.8c-0.4,21.8-55.2,241.1-55.2,241.1H631c0,0,10.8-68.6,25.8-100.8
		c15-32.2,33.4-57.1,25.7-20.5c-7.7,36.6-45,124.4-16.2,122.9c28.5-1.5,41-30.7,41-30.7s-7.8,40.7,13,30.9
		c18.4-8.7,30.5-29.9,30.5-29.9s-1,44.9,22.5,24c23.4-20.9,25.5-26.5,25.5-26.5s-4,42.7,18.3,32.5c21.6-9.9,35.3-38.1,36-39.7
		c-0.5,2-10.5,42.1,6.8,39.4c12.4-1.9,31.3-21,31.3-21s2.8,21.7,18.1,21.9c23.7,0.3,43.4-33.2,44.4-45c2.7-32.2-17.5-71.1-17.6-80
		c-0.2-12.5,6.6-31.7,12.8-16.7C954.9,175.5,949.9,193.7,949.9,193.7z M737,266.1c-14.1,11.5-0.2-26.8,5.9-62.9
		c6.1-36.1,27.8-40.5,27.8-40.5C769,181.8,751.2,254.7,737,266.1z"/>
</g>
</svg>
